<svg width="24" height="24" viewBox="0 0 24 24" fill="none" xmlns="http://www.w3.org/2000/svg">
<g clip-path="url(#clip0_0_3200)">
<path d="M18.24 0H5.76C2.57884 0 0 2.57884 0 5.76V18.24C0 21.4212 2.57884 24 5.76 24H18.24C21.4212 24 24 21.4212 24 18.24V5.76C24 2.57884 21.4212 0 18.24 0Z" fill="#FFEF46"/>
<path d="M11.6302 12.6816L12.811 11.5392L15.0142 12.2592C16.459 12.7392 17.179 13.6224 17.179 14.8656C17.179 15.8064 16.819 16.4304 16.099 17.232L15.8782 17.472L15.9598 16.9104C16.2814 14.8656 15.6814 13.9872 13.6942 13.344L11.6302 12.6816ZM8.66382 5.68796L14.6734 7.68956L13.3726 8.93276L10.2478 7.89116C9.16782 7.53116 8.80302 6.95036 8.66382 5.72636V5.68796ZM8.30382 15.8688L9.66702 14.568L12.2302 15.408C13.5742 15.8496 14.035 16.4304 13.891 17.8944L8.29902 15.8688H8.30382ZM6.58062 10.056C6.58062 9.67676 6.78222 9.31676 7.12302 9.01436C7.48302 9.53756 8.10702 9.99836 9.08622 10.3152L11.2078 11.016L10.027 12.1584L7.94382 11.4768C6.98382 11.1552 6.58062 10.6752 6.58062 10.056ZM12.8734 20.5776C17.2798 17.6544 19.6462 15.6672 19.6462 13.224C19.6462 11.6016 18.6862 10.6992 16.5598 9.99836L14.9566 9.45596L19.3438 5.24636L18.4606 4.30556L17.1598 5.44796L11.011 3.42236C9.10542 4.04156 6.70542 5.86556 6.70542 7.68956C6.70542 7.89116 6.72462 8.08796 6.78702 8.30876C5.20302 9.21116 4.56462 10.0512 4.56462 11.0928C4.56462 12.0768 5.08782 13.056 6.74862 13.5984L8.06862 14.04L3.49902 18.4272L4.38222 19.368L5.80302 18.0672L12.8734 20.5728V20.5776Z" fill="#02050A" stroke="#FFEF46" stroke-width="0.24" stroke-miterlimit="10"/>
</g>
<defs>
<clipPath id="clip0_0_3200">
<rect width="24" height="24" fill="white"/>
</clipPath>
</defs>
</svg>
