<svg width="24" height="24" viewBox="0 0 24 24" fill="none" xmlns="http://www.w3.org/2000/svg">
<g clip-path="url(#clip0_0_3209)">
<g clip-path="url(#clip1_0_3209)">
<path d="M12.0001 23.2714C18.4267 23.2714 23.6365 18.0616 23.6365 11.635C23.6365 5.20843 18.4267 -0.00134277 12.0001 -0.00134277C5.57355 -0.00134277 0.36377 5.20843 0.36377 11.635C0.36377 18.0616 5.57355 23.2714 12.0001 23.2714Z" fill="#0364FF"/>
<path fill-rule="evenodd" clip-rule="evenodd" d="M8.15885 6.9021C7.60271 6.9021 7.15186 7.35294 7.15186 7.90909V9.08218C7.15186 9.63833 7.60271 10.0892 8.15885 10.0892H9.94052V16.6515C9.94052 17.2076 10.3914 17.6585 10.9475 17.6585H12.1206C12.6767 17.6585 13.1276 17.2076 13.1276 16.6515V9.09069C13.1276 9.08785 13.1276 9.08502 13.1276 9.08218V7.90909C13.1276 7.35294 12.6767 6.9021 12.1206 6.9021H10.9475H8.15885Z" fill="white"/>
<path d="M15.5183 10.0892C16.3984 10.0892 17.1119 9.37571 17.1119 8.49563C17.1119 7.61556 16.3984 6.9021 15.5183 6.9021C14.6383 6.9021 13.9248 7.61556 13.9248 8.49563C13.9248 9.37571 14.6383 10.0892 15.5183 10.0892Z" fill="white"/>
</g>
</g>
<defs>
<clipPath id="clip0_0_3209">
<rect width="24" height="23.26" fill="white"/>
</clipPath>
<clipPath id="clip1_0_3209">
<rect width="24" height="23.2727" fill="white" transform="translate(0 -0.00134277)"/>
</clipPath>
</defs>
</svg>
