<svg width="24" height="24" viewBox="0 0 24 24" fill="none" xmlns="http://www.w3.org/2000/svg">
<g clip-path="url(#clip0_0_3218)">
<path d="M20.1101 1.38144e-05H9.13867V14.7998H23.9501V3.82836C23.9499 3.32468 23.8504 2.82599 23.6572 2.36083C23.464 1.89567 23.181 1.47319 22.8243 1.11758C22.4676 0.761973 22.0443 0.480215 21.5785 0.288445C21.1128 0.0966758 20.6138 -0.00133897 20.1101 1.38144e-05Z" fill="white"/>
<path d="M5.72023 0H3.82971C2.81401 0 1.83991 0.403487 1.1217 1.1217C0.403487 1.83991 0 2.81401 0 3.82971L0 5.72023H5.72023V0Z" fill="white"/>
<path d="M0 9.13989H5.72023V14.8601H0V9.13989Z" fill="white"/>
<path d="M18.2793 23.9513H20.1698C20.6736 23.9513 21.1724 23.8519 21.6378 23.6588C22.1031 23.4657 22.5257 23.1827 22.8815 22.826C23.2372 22.4693 23.5191 22.0459 23.711 21.5801C23.9028 21.1142 24.0009 20.6151 23.9995 20.1113V18.2798H18.2793V23.9513Z" fill="white"/>
<path d="M9.13965 18.2798H14.8599V24H9.13965V18.2798Z" fill="white"/>
<path d="M0 18.2798V20.1703C0 20.6732 0.0990585 21.1712 0.29152 21.6359C0.483981 22.1005 0.766075 22.5227 1.1217 22.8783C1.47732 23.2339 1.8995 23.516 2.36415 23.7085C2.82879 23.901 3.32679 24 3.82971 24H5.72023V18.2798H0Z" fill="white"/>
</g>
<defs>
<clipPath id="clip0_0_3218">
<rect width="24" height="24" fill="white"/>
</clipPath>
</defs>
</svg>
