<svg width="24" height="24" viewBox="0 0 24 24" fill="none" xmlns="http://www.w3.org/2000/svg">
<g clip-path="url(#clip0_0_3193)">
<path d="M18.2222 0H5.77778C2.5868 0 0 2.5868 0 5.77778V18.2222C0 21.4132 2.5868 24 5.77778 24H18.2222C21.4132 24 24 21.4132 24 18.2222V5.77778C24 2.5868 21.4132 0 18.2222 0Z" fill="#AB9FF2"/>
<path fill-rule="evenodd" clip-rule="evenodd" d="M10.3394 15.5384C9.3347 17.0779 7.6511 19.0262 5.41083 19.0262C4.35181 19.0262 3.3335 18.5902 3.3335 16.6964C3.3335 11.8734 9.91852 4.40723 16.0283 4.40723C19.5042 4.40723 20.8891 6.81876 20.8891 9.55727C20.8891 13.0724 18.6081 17.0916 16.3406 17.0916C15.621 17.0916 15.268 16.6964 15.268 16.0697C15.268 15.9062 15.2952 15.7291 15.3495 15.5384C14.5756 16.8599 13.0821 18.0861 11.6836 18.0861C10.6653 18.0861 10.1493 17.4458 10.1493 16.5466C10.1493 16.2196 10.2172 15.879 10.3394 15.5384ZM18.5949 9.46205C18.5949 10.26 18.1241 10.659 17.5974 10.659C17.0627 10.659 16.5999 10.26 16.5999 9.46205C16.5999 8.66407 17.0627 8.26509 17.5974 8.26509C18.1241 8.26509 18.5949 8.66407 18.5949 9.46205ZM15.6025 9.46207C15.6025 10.26 15.1316 10.659 14.605 10.659C14.0703 10.659 13.6075 10.26 13.6075 9.46207C13.6075 8.66407 14.0703 8.26509 14.605 8.26509C15.1316 8.26509 15.6025 8.66407 15.6025 9.46207Z" fill="#FFFDF8"/>
</g>
<defs>
<clipPath id="clip0_0_3193">
<rect width="24" height="24" fill="white"/>
</clipPath>
</defs>
</svg>
