<svg width="24" height="24" viewBox="0 0 24 24" fill="none" xmlns="http://www.w3.org/2000/svg">
<g clip-path="url(#clip0_0_3180)">
<path d="M19.9945 20.2619L16.0313 19.0826L13.042 20.8691L10.9576 20.8678L7.96704 19.0813L4.00515 20.2619L2.7998 16.1947L4.00515 11.6789L2.7998 7.86393L4.00515 3.13098L10.1944 6.82893H13.8039L19.9945 3.13098L21.1998 7.86133L19.9945 11.6789L21.1998 16.1934L19.9945 20.2632V20.2619Z" fill="#FF5C16"/>
<path d="M4.00537 3.13098L10.1959 6.83153L9.94887 9.37224L4.00797 3.13098H4.00537ZM7.96727 16.196L10.6913 18.2699L7.96727 19.0813V16.1947V16.196ZM10.4729 12.7659L9.95147 9.37224L6.59939 11.6802H6.59679L6.60719 14.0558L7.96597 12.7659H10.4742H10.4729ZM19.996 3.13098L13.8067 6.83153L14.0486 9.37224L19.9934 3.13098H19.996ZM16.0341 16.196L13.3113 18.2699L16.0341 19.0813V16.1947V16.196ZM17.4033 11.6802L14.0512 9.37224L13.5272 12.7659H16.0328L17.3929 14.0532L17.402 11.6789L17.4033 11.6802Z" fill="#FF5C16"/>
<path d="M7.96574 19.0813L4.00515 20.262L2.7998 16.196H7.96574V19.0826V19.0813ZM10.4739 12.7659L11.2307 17.6692L10.1814 14.9426L6.60697 14.0558L7.96704 12.7659H10.4713H10.4739ZM16.0339 19.0839L19.9958 20.2633L21.2011 16.1973H16.0339V19.0839ZM13.527 12.7646L12.7702 17.6679L13.8182 14.9413L17.3939 14.0545L16.0326 12.7646H13.527Z" fill="#E34807"/>
<path d="M2.7998 16.1946L4.00515 11.6788H6.59657L6.60567 14.0544L10.1814 14.9412L11.2294 17.6678L10.6898 18.2686L7.96704 16.1933H2.7998V16.1946ZM21.1985 16.1946L19.9945 11.6788H17.403L17.3939 14.0544L13.8182 14.9412L12.7702 17.6678L13.3098 18.2686L16.0326 16.1933H21.1998L21.1985 16.1946ZM13.8052 6.82886H10.1957L9.94994 9.36957L11.2294 17.6652H12.7702L14.051 9.36957L13.8039 6.82886H13.8052Z" fill="#FF8D5D"/>
<path d="M4.00515 3.13098L2.7998 7.86133L4.00515 11.6789H6.59657L9.94864 9.37224L4.00515 3.13098ZM9.7237 13.7502H8.54956L7.90983 14.3756L10.1814 14.9387L9.7237 13.7489V13.7502ZM19.9945 3.13098L21.1998 7.86133L19.9945 11.6789H17.403L14.051 9.37224L19.9945 3.13098ZM14.2772 13.7502H15.4526L16.0924 14.3769L13.8182 14.9413L14.2772 13.7489V13.7502ZM13.042 19.2503L13.3098 18.2699L12.7702 17.6692H11.2281L10.6898 18.2699L10.9563 19.2503" fill="#661800"/>
<path d="M13.0423 19.2504V20.8692H10.958V19.2504H13.041H13.0423Z" fill="#C0C4CD"/>
<path d="M7.96729 19.0799L10.9579 20.8691V19.249L10.6913 18.2686L7.96729 19.0799ZM16.0328 19.0799L13.0422 20.8691V19.249L13.3101 18.2686L16.0328 19.0799Z" fill="#E7EBF6"/>
</g>
<defs>
<clipPath id="clip0_0_3180">
<rect width="18.4" height="18.4" fill="white" transform="translate(2.7998 2.80005)"/>
</clipPath>
</defs>
</svg>
